# xmcd
#
# Track frame offsets:
# 150
# 20316
# 41957
# 69542
# 88933
# 108964
# 138032
# 154667
# 164399
# 177893
# 197217
# 215670
# 231764
# 258470
# 285042
# 307679
#
# Disc length: 4318 seconds
#
# Revision: 1
# Processed by: cddbd v1.5.2PL0 Copyright (c) Steve Scherf et al.
# Submitted via: CedeCatalogueitor 2.6.0.6 http://personales.ya.com/cdcatalogueitor
#
DISCID=d410dc10
DTITLE=Varios Artistas - Elektromium
DYEAR=1900
DGENRE=
TTITLE0=Magnus: Summer's Here
TTITLE1=Styrofoam: Couches In Alleys (ft Ben Gibbard)
TTITLE2=Soulwax: E-talking
TTITLE3=Köhn: Bruce Willis Is My Hero. He Keeps On Saving The World
TTITLE4=Tuk: German Holidays
TTITLE5=Nid and Sancy: Be Yourself Toninght
TTITLE6=Vive La Fête: Hot Shot
TTITLE7=Petersonic: Touch#6
TTITLE8=The Go Find: Modern Times
TTITLE9=Wixel: Your Home Is My Last Resort
TTITLE10=Stijn: Wrong
TTITLE11=Dijf Sanders: Spermatozoïde
TTITLE12=Eavesdropper: Col_110
TTITLE13=Buscemi: Viaje Feliz
TTITLE14=Briskey: Galactic Jack
TTITLE15=Mascotte: Italodisco
EXTD=
EXTT0=
EXTT1=
EXTT2=
EXTT3=
EXTT4=
EXTT5=
EXTT6=
EXTT7=
EXTT8=
EXTT9=
EXTT10=
EXTT11=
EXTT12=
EXTT13=
EXTT14=
EXTT15=
PLAYORDER=
